<svg width="200" height="36" viewBox="0 0 200 36" fill="none" xmlns="http://www.w3.org/2000/svg">
<mask id="mask0_103_224" style="mask-type:alpha" maskUnits="userSpaceOnUse" x="0" y="0" width="200" height="36">
<path fill-rule="evenodd" clip-rule="evenodd" d="M188.827 0.000183105H181.229V27.0404H188.827L188.827 0.000183105Z" fill="#DE1E34"/>
<path fill-rule="evenodd" clip-rule="evenodd" d="M192.403 27.0404V0.000183105H200V27.0404H192.403Z" fill="#DE1E34"/>
<path fill-rule="evenodd" clip-rule="evenodd" d="M10.0555 0H0V27.0402H10.0555V13.6319H16.2005V27.0402H26.2569V0H16.2005V10.5025H10.0555V0Z" fill="#DE1E34"/>
<path fill-rule="evenodd" clip-rule="evenodd" d="M63.4078 10.0553L62.7929 8.268H54.5245V27.0401H62.7929V15.7549C62.7929 13.296 64.3578 11.9557 65.6982 11.9557C66.8152 11.9557 68.2674 12.179 68.2674 14.6376V27.0401H76.5358V14.8609C76.5358 8.04495 68.8834 5.36364 63.4078 10.0553Z" fill="#DE1E34"/>
<path fill-rule="evenodd" clip-rule="evenodd" d="M148.324 19.1624L144.47 8.26843H138.827L134.972 19.6094L130.95 8.26843H119.889L115.921 17.8209L110.335 8.26843H100.893L112.011 27.2636L110.559 30.838C110.055 31.9561 108.851 32.0116 108.616 30.9501C108.616 29.0303 107.059 27.4745 105.139 27.4745C103.219 27.4745 101.663 29.0303 101.663 30.9501C101.676 32.9616 103.687 35.5872 107.653 35.4193C111.62 35.252 113.296 31.9564 113.854 30.5594L123.042 8.3416L129.665 27.0402H135.699L139.386 16.2572L143.185 27.0402H148.883L155.307 8.26843H152.012L148.324 19.1624Z" fill="#DE1E34"/>
<path fill-rule="evenodd" clip-rule="evenodd" d="M40.5019 7.31372C34.1754 7.31372 29.0476 12.0178 29.0476 17.8203C29.0476 23.6249 34.1754 28.3293 40.5019 28.3293C46.8295 28.3293 51.9582 23.6249 51.9582 17.8203C51.9582 12.0178 46.8295 7.31372 40.5019 7.31372ZM43.3519 22.7362C43.3519 23.4921 43.0517 24.2171 42.5172 24.7515C41.9827 25.286 41.2577 25.5863 40.5019 25.5863C38.9296 25.5863 37.6539 24.3106 37.6539 22.7362V12.9056C37.6539 11.3321 38.9296 10.0576 40.5019 10.0576C42.0762 10.0576 43.3519 11.3321 43.3519 12.9053V22.7362Z" fill="#DE1E34"/>
<path fill-rule="evenodd" clip-rule="evenodd" d="M101.812 19.3291C101.872 18.8895 101.903 18.2759 101.903 17.8203C101.903 12.0178 96.7742 7.31372 90.4477 7.31372C84.12 7.31372 78.9911 12.0178 78.9911 17.8203C78.9911 23.6249 84.12 28.3293 90.4477 28.3293C94.7948 28.3293 98.576 26.1076 100.518 22.8345L97.9871 21.8983C96.4579 24.2356 93.6536 25.8005 90.4477 25.8005C88.8734 25.8005 87.5976 24.3106 87.5976 22.7362V19.33L101.812 19.3291ZM87.5976 12.9053C87.5976 11.3321 88.8734 10.0576 90.4477 10.0576C92.0208 10.0576 93.2966 11.3321 93.2966 12.9053V16.6481H87.5976V12.9053Z" fill="#DE1E34"/>
<path fill-rule="evenodd" clip-rule="evenodd" d="M178.347 19.3291C178.409 18.8895 178.44 18.2759 178.44 17.8203C178.44 12.0178 173.311 7.31372 166.984 7.31372C160.657 7.31372 155.528 12.0178 155.528 17.8203C155.528 23.6249 160.657 28.3293 166.984 28.3293C171.331 28.3293 175.113 26.1076 177.054 22.8345L174.524 21.8983C172.995 24.2356 170.191 25.8005 166.984 25.8005C165.41 25.8005 164.134 24.3106 164.134 22.7362V19.33L178.347 19.3291ZM164.134 12.9053C164.134 11.3321 165.41 10.0576 166.984 10.0576C168.558 10.0576 169.834 11.3321 169.834 12.9053V16.6481H164.134V12.9053Z" fill="#DE1E34"/>
</mask>
<g mask="url(#mask0_103_224)">
<rect x="-4.55006" y="-13.6504" width="211.033" height="55.9" fill="#2C2C2A"/>
</g>
</svg>
